<mxfile host="app.diagrams.net" modified="2021-03-11T04:27:08.704Z" agent="5.0 (Macintosh; Intel Mac OS X 11_2_2) AppleWebKit/537.36 (KHTML, like Gecko) Chrome/88.0.4324.192 Safari/537.36" etag="PM4f9ymgNeh5Uw285IuP" version="14.4.7" type="github">
  <diagram id="gvjj1tVjjI1yKPShJQQQ" name="Page-1">
    <mxGraphModel dx="946" dy="537" grid="1" gridSize="10" guides="1" tooltips="1" connect="1" arrows="1" fold="1" page="1" pageScale="1" pageWidth="827" pageHeight="1169" math="0" shadow="0">
      <root>
        <mxCell id="0" />
        <mxCell id="1" parent="0" />
        <mxCell id="-rqV6nJy0CtMbPxO1fcB-5" value="" style="rounded=1;whiteSpace=wrap;html=1;shadow=0;glass=0;sketch=0;fillColor=none;" vertex="1" parent="1">
          <mxGeometry x="110" y="100" width="590" height="250" as="geometry" />
        </mxCell>
        <mxCell id="-rqV6nJy0CtMbPxO1fcB-1" value="" style="shape=mxgraph.signs.tech.computer;html=1;pointerEvents=1;fillColor=#000000;strokeColor=none;verticalLabelPosition=bottom;verticalAlign=top;align=center;" vertex="1" parent="1">
          <mxGeometry x="180" y="190" width="98" height="98" as="geometry" />
        </mxCell>
        <mxCell id="-rqV6nJy0CtMbPxO1fcB-2" value="" style="shape=mxgraph.signs.tech.computer;html=1;pointerEvents=1;fillColor=#000000;strokeColor=none;verticalLabelPosition=bottom;verticalAlign=top;align=center;" vertex="1" parent="1">
          <mxGeometry x="350" y="110" width="98" height="98" as="geometry" />
        </mxCell>
        <mxCell id="-rqV6nJy0CtMbPxO1fcB-3" value="" style="shape=mxgraph.signs.tech.computer;html=1;pointerEvents=1;fillColor=#000000;strokeColor=none;verticalLabelPosition=bottom;verticalAlign=top;align=center;" vertex="1" parent="1">
          <mxGeometry x="520" y="190" width="98" height="98" as="geometry" />
        </mxCell>
        <mxCell id="-rqV6nJy0CtMbPxO1fcB-7" value="Cluster k8s" style="text;html=1;strokeColor=none;fillColor=none;align=center;verticalAlign=middle;whiteSpace=wrap;rounded=0;shadow=0;glass=0;sketch=0;fontSize=30;fontColor=#0000CC;" vertex="1" parent="1">
          <mxGeometry x="336" y="50" width="156" height="30" as="geometry" />
        </mxCell>
        <mxCell id="-rqV6nJy0CtMbPxO1fcB-8" value="MASTER" style="text;html=1;strokeColor=none;fillColor=none;align=center;verticalAlign=middle;whiteSpace=wrap;rounded=0;shadow=0;glass=0;sketch=0;fontSize=19;" vertex="1" parent="1">
          <mxGeometry x="364" y="133" width="70" height="20" as="geometry" />
        </mxCell>
        <mxCell id="-rqV6nJy0CtMbPxO1fcB-9" value="&lt;font style=&quot;font-size: 16px&quot;&gt;WORKER&lt;/font&gt;" style="text;html=1;strokeColor=none;fillColor=none;align=center;verticalAlign=middle;whiteSpace=wrap;rounded=0;shadow=0;glass=0;sketch=0;fontSize=19;" vertex="1" parent="1">
          <mxGeometry x="194" y="215" width="70" height="20" as="geometry" />
        </mxCell>
        <mxCell id="-rqV6nJy0CtMbPxO1fcB-10" value="&lt;font style=&quot;font-size: 16px&quot;&gt;WORKER&lt;/font&gt;" style="text;html=1;strokeColor=none;fillColor=none;align=center;verticalAlign=middle;whiteSpace=wrap;rounded=0;shadow=0;glass=0;sketch=0;fontSize=19;" vertex="1" parent="1">
          <mxGeometry x="534" y="215" width="70" height="20" as="geometry" />
        </mxCell>
        <mxCell id="-rqV6nJy0CtMbPxO1fcB-15" value="" style="endArrow=classic;html=1;fontSize=19;fontColor=#000000;exitX=0;exitY=1;exitDx=0;exitDy=0;exitPerimeter=0;entryX=0.995;entryY=0.5;entryDx=0;entryDy=0;entryPerimeter=0;strokeWidth=4;strokeColor=#0000FF;" edge="1" parent="1" source="-rqV6nJy0CtMbPxO1fcB-2" target="-rqV6nJy0CtMbPxO1fcB-1">
          <mxGeometry width="50" height="50" relative="1" as="geometry">
            <mxPoint x="390" y="310" as="sourcePoint" />
            <mxPoint x="440" y="260" as="targetPoint" />
          </mxGeometry>
        </mxCell>
        <mxCell id="-rqV6nJy0CtMbPxO1fcB-16" value="" style="endArrow=classic;html=1;fontSize=19;fontColor=#000000;exitX=1;exitY=1;exitDx=0;exitDy=0;exitPerimeter=0;entryX=0;entryY=0.5;entryDx=0;entryDy=0;entryPerimeter=0;strokeWidth=4;strokeColor=#0000FF;" edge="1" parent="1" source="-rqV6nJy0CtMbPxO1fcB-2" target="-rqV6nJy0CtMbPxO1fcB-3">
          <mxGeometry width="50" height="50" relative="1" as="geometry">
            <mxPoint x="360" y="218" as="sourcePoint" />
            <mxPoint x="287.51" y="249" as="targetPoint" />
            <Array as="points" />
          </mxGeometry>
        </mxCell>
      </root>
    </mxGraphModel>
  </diagram>
</mxfile>
